<svg width="259" height="199" viewBox="0 0 259 199" fill="none" xmlns="http://www.w3.org/2000/svg">
<g filter="url(#filter0_d)">
<g clip-path="url(#clip0)">
<path d="M13 11.9867C13 10.3372 14.3372 9 15.9867 9H243.011C244.66 9 245.998 10.3372 245.998 11.9867V178.543C245.998 180.193 244.66 181.53 243.011 181.53H15.9867C14.3372 181.53 13 180.193 13 178.543V11.9867Z" fill="white"/>
<path fill-rule="evenodd" clip-rule="evenodd" d="M113.707 88.4545H81.7863V120.375H113.707V88.4545ZM139.244 92.9417C137.366 91.8993 135.207 91.3055 132.911 91.3055C130.563 91.3055 128.381 91.9822 126.475 93.0732V84.4142C126.475 82.7095 125.985 81.1174 125.137 79.772C123.59 77.319 120.855 75.6862 117.733 75.6862H77.7599C72.9332 75.6862 69.0181 79.5945 69.0181 84.4142V124.402C69.0181 129.228 72.9263 133.143 77.7599 133.143H117.733C120.854 133.143 123.594 131.51 125.14 129.049C125.986 127.703 126.475 126.11 126.475 124.402V115.756C128.374 116.834 130.563 117.51 132.911 117.51C135.207 117.51 137.366 116.917 139.244 115.876C143.272 113.641 146.003 109.343 146.003 104.411C146.003 99.48 143.272 95.1783 139.244 92.9417Z" fill="#BF2121"/>
<path fill-rule="evenodd" clip-rule="evenodd" d="M176.639 88.4545H160.22C163.105 93.0868 164.771 98.5565 164.771 104.411C164.771 110.271 163.103 115.739 160.216 120.368H176.639V88.4545ZM140.692 133.136C138.312 133.136 136.156 132.187 134.581 130.647C132.957 129.06 131.95 126.845 131.95 124.395V121.619C132.813 121.736 133.69 121.833 134.581 121.833C135.514 121.833 136.429 121.76 137.322 121.619C138.488 121.435 139.615 121.135 140.692 120.732C140.941 120.639 141.187 120.54 141.431 120.436C141.483 120.414 141.535 120.391 141.587 120.368C147.721 117.673 152.003 111.544 152.003 104.411C152.003 97.2883 147.737 91.1598 141.616 88.4545C141.561 88.4302 141.506 88.4063 141.451 88.3826C141.201 88.2752 140.948 88.1734 140.692 88.0776C139.642 87.684 138.543 87.3891 137.407 87.2039C136.487 87.054 135.543 86.976 134.581 86.976C133.69 86.976 132.813 87.0658 131.95 87.2039V84.4142C131.95 81.9691 132.958 79.7585 134.581 78.1738C136.157 76.6349 138.314 75.6862 140.692 75.6862H180.679C185.499 75.6862 189.407 79.6014 189.407 84.4142V124.402C189.407 129.228 185.492 133.136 180.679 133.136H140.692Z" fill="#BF2121"/>
<rect x="13.56" y="9.56" width="231.573" height="16.8" fill="#EEEEEE" stroke="#BF2121" stroke-width="1.12"/>
<circle cx="21.2134" cy="17.96" r="2.24" fill="#F20F22"/>
<circle cx="28.6802" cy="17.96" r="2.24" fill="#F20F22"/>
<circle cx="36.1467" cy="17.96" r="2.24" fill="#F20F22"/>
<rect x="44.9201" y="14.04" width="194.24" height="7.84" rx="3.92" fill="white" stroke="#BF2121" stroke-width="1.12"/>
</g>
<path d="M13.3792 11.9867C13.3792 10.5466 14.5466 9.37922 15.9867 9.37922H243.011C244.451 9.37922 245.618 10.5466 245.618 11.9867V178.543C245.618 179.983 244.451 181.151 243.011 181.151H15.9867C14.5466 181.151 13.3792 179.983 13.3792 178.543V11.9867Z" stroke="#BF2121" stroke-width="0.758434"/>
</g>
<defs>
<filter id="filter0_d" x="0" y="0" width="258.998" height="198.53" filterUnits="userSpaceOnUse" color-interpolation-filters="sRGB">
<feFlood flood-opacity="0" result="BackgroundImageFix"/>
<feColorMatrix in="SourceAlpha" type="matrix" values="0 0 0 0 0 0 0 0 0 0 0 0 0 0 0 0 0 0 127 0"/>
<feOffset dy="4"/>
<feGaussianBlur stdDeviation="6.5"/>
<feColorMatrix type="matrix" values="0 0 0 0 0.88418 0 0 0 0 0.88418 0 0 0 0 0.88418 0 0 0 0.12 0"/>
<feBlend mode="normal" in2="BackgroundImageFix" result="effect1_dropShadow"/>
<feBlend mode="normal" in="SourceGraphic" in2="effect1_dropShadow" result="shape"/>
</filter>
<clipPath id="clip0">
<path d="M13 11.9867C13 10.3372 14.3372 9 15.9867 9H243.011C244.66 9 245.998 10.3372 245.998 11.9867V178.543C245.998 180.193 244.66 181.53 243.011 181.53H15.9867C14.3372 181.53 13 180.193 13 178.543V11.9867Z" fill="white"/>
</clipPath>
</defs>
</svg>
