<svg width="233" height="173" viewBox="0 0 233 173" fill="none" xmlns="http://www.w3.org/2000/svg">
<rect width="233" height="172.532" fill="white"/>
<path fill-rule="evenodd" clip-rule="evenodd" d="M119.76 61.4592C120.763 60.8169 121.964 60.6728 123.258 60.6728H130.304C130.96 60.6728 131.582 60.729 132.125 60.8904C132.678 61.0545 133.238 61.3547 133.628 61.9002C134.022 62.4518 134.117 63.079 134.079 63.6488C134.041 64.2024 133.874 64.7757 133.652 65.3394L110.59 124.385C110.151 125.628 109.558 126.66 108.531 127.32C107.528 127.965 106.327 128.11 105.029 128.11H97.9835C97.3295 128.11 96.7113 128.055 96.171 127.891C95.6174 127.724 95.0646 127.417 94.6845 126.865C94.3063 126.316 94.2196 125.699 94.2507 125.149C94.2811 124.61 94.4284 124.046 94.6214 123.489L94.6299 123.465L117.697 64.3926C118.137 63.1483 118.732 62.1171 119.76 61.4592Z" fill="#BF2121"/>
<path fill-rule="evenodd" clip-rule="evenodd" d="M84.263 71.491L55.0252 86.6775L55.0013 86.6913C53.884 87.332 52.9367 87.9752 52.3065 88.8552C51.6344 89.7938 51.4306 90.8396 51.4306 92.0434V96.2441C51.4306 97.4478 51.6321 98.5059 52.2923 99.4598C52.9196 100.366 53.865 101.032 55.0025 101.683L55.0267 101.697L84.2786 116.835L84.2807 116.836C85.6005 117.526 87.1883 118.004 88.4846 117.136C89.1218 116.71 89.4983 116.068 89.7135 115.399C89.9268 114.735 90.0098 113.963 90.0098 113.128V107.667C90.0098 105.898 89.8428 104.495 89.1394 103.358C88.4291 102.209 87.3018 101.546 86.0137 100.91L86.0018 100.904L71.8177 94.245L85.8998 87.6676C87.2386 87.0396 88.4257 86.4147 89.1534 85.2688C89.8746 84.1332 90.0098 82.7052 90.0098 80.8987V75.1847C90.0098 74.3319 89.926 73.5468 89.7128 72.8749C89.4984 72.1992 89.1221 71.5463 88.4778 71.1159C87.1616 70.2365 85.5658 70.7627 84.263 71.491Z" fill="#BF2121"/>
<path fill-rule="evenodd" clip-rule="evenodd" d="M142.897 71.6678L172.134 86.8543L172.158 86.868C173.276 87.5088 174.223 88.1519 174.853 89.032C175.525 89.9705 175.729 91.0164 175.729 92.2201V96.4209C175.729 97.6246 175.528 98.6827 174.867 99.6366C174.24 100.543 173.295 101.209 172.157 101.86L172.133 101.874L142.881 117.012L142.879 117.013C141.559 117.702 139.971 118.181 138.675 117.313C138.038 116.887 137.661 116.245 137.446 115.575C137.233 114.912 137.15 114.14 137.15 113.305V107.844C137.15 106.075 137.317 104.672 138.02 103.535C138.731 102.386 139.858 101.723 141.146 101.087L141.158 101.081L155.342 94.4218L141.26 87.8443C139.921 87.2163 138.734 86.5915 138.006 85.4456C137.285 84.31 137.15 82.882 137.15 81.0755V75.3614C137.15 74.5087 137.234 73.7236 137.447 73.0516C137.661 72.376 138.038 71.723 138.682 71.2926C139.998 70.4133 141.594 70.9394 142.897 71.6678Z" fill="#BF2121"/>
<rect x="0.492948" y="0.492948" width="232.014" height="14.7884" fill="#EEEEEE" stroke="#BF2121" stroke-width="0.985896"/>
<circle cx="7.22985" cy="7.88714" r="1.97179" fill="#F20F22"/>
<circle cx="13.8026" cy="7.88714" r="1.97179" fill="#F20F22"/>
<circle cx="20.3751" cy="7.88714" r="1.97179" fill="#F20F22"/>
<rect x="28.0979" y="4.43649" width="199.151" height="6.90127" rx="3.45063" fill="white" stroke="#BF2121" stroke-width="0.985896"/>
</svg>
