<svg width="80" height="99" viewBox="0 0 80 99" fill="none" xmlns="http://www.w3.org/2000/svg">
<path d="M20.1923 5.01956C20.4081 5.6938 20.5856 6.49237 20.7248 7.41527L21.105 35.9355V37.6467L21.105 73.8104L21.105 73.8294V75.2935H21.091C20.9907 80.5337 20.3489 84.7547 19.1656 87.9565C17.9487 91.531 15.8192 94.1549 12.7771 95.828C9.73491 97.5012 5.47589 98.3378 0 98.3378V96.0562C3.65059 96.0562 6.35051 94.1168 8.09975 90.2381C9.92505 86.3593 10.8377 80.8834 10.8377 73.8104V9.06002C10.4191 7.44283 9.82412 6.13403 9.24056 5.13365C8.17581 3.2323 6.04629 2.28162 2.85203 2.28162H0.570405V0H10.8377C13.6517 0 15.7432 0.380269 17.1122 1.14081C18.5572 1.82529 19.5839 3.11821 20.1923 5.01956Z" fill="#FAFAFA"/>
<path d="M61.4046 95.4477C65.2833 97.3491 69.01 98.2998 72.5845 98.2998C75.2464 98.2998 77.7182 97.9195 79.9998 97.159V94.9914C77.2619 94.6111 74.1817 93.2802 70.7592 90.9986C67.3368 88.6409 63.9524 85.7508 60.606 82.3284L42.1414 63.061C37.4768 58.1936 30.2607 56.7742 24.1001 59.5122L48.0571 84.61C53.0767 89.8578 57.5258 93.4703 61.4046 95.4477Z" fill="#F20F22"/>
<path d="M58.5441 30.8595C60.8747 28.7448 62.9691 27.2679 64.8272 26.4287C67.1849 25.2879 69.9609 24.7175 73.1551 24.7175V21.8655H67.4511C65.0173 21.8655 62.8118 22.2838 60.8344 23.1204C58.857 23.957 57.1458 25.0217 55.7007 26.3146C54.2557 27.5315 52.4684 29.2427 50.3389 31.4483L48.0573 33.844L39.7319 42.1693L54.285 34.0088C55.8299 33.1425 57.2324 32.0497 58.5441 30.8595Z" fill="#F20F22"/>
</svg>
